<?xml version="1.0" encoding="UTF-8"?><svg id="b" xmlns="http://www.w3.org/2000/svg" viewBox="0 0 376.22 376.24"><defs><style>.d{stroke-width:0px;}</style></defs><g id="c"><path class="d" d="M112.61,45.27c-14.59,6.9-28.9,13.47-41.83,23.17-12.93,9.69-22.87,20.57-31.33,34.67-8.45,14.1-14.12,34.77-12.92,52.08,3.23-1.63,6.44-3.4,10-4-.49-40.83,32.17-73.81,66.77-90.23C137.9,44.54,173.1,29.98,199.53.19c-17.86-2.16-29.07,14.83-43.3,22.7-14.24,7.86-29.04,15.47-43.62,22.38Z"/><path class="d" d="M167.53,2.19c-11.01-.62-26.91,3.82-37.32,8.68-10.41,4.86-29.04,5.71-22.68,20.32,20.55-8.31,41.73-15.8,60-29Z"/><path class="d" d="M168.78,43.44c-6.97,4.53-13.72,8.9-21.17,12.83-7.46,3.92-15.39,8.09-23,12-7.62,3.9-15.26,7.05-22.85,11.15-7.59,4.1-13.98,7.43-20.98,13.02-7,5.58-10,10.46-16.33,17.67-6.33,7.21-5.33,13.65-10.93,23.07-5.6,9.43,6.04,22.07,9.01,10.01,2.97-12.05,2.85-16.72,8.75-25.25,5.89-8.54,9.4-11.61,16.5-17.5,7.1-5.89,13.14-8.94,20.67-13.33,7.54-4.38,15.34-7.01,22.85-11.15,7.52-4.14,15.75-7.7,23-12s14.56-8.04,21.48-12.52c6.93-4.47,13.59-9.01,20-14,6.41-5,12.14-10.32,18-16,5.85-5.69,11.83-11.55,15.75-18.25-9.75-4.24-16.26,4.34-22.25,10.75-5.99,6.41-12.08,10.09-18.5,15.5-6.43,5.41-13.03,9.46-20,14Z"/><path class="d" d="M202.28,54.94c-9.24,7.52-17.71,15.53-27.52,22.48-9.81,6.95-20.56,12.76-31,19-10.44,6.24-22.64,11.21-33.54,16.46-10.89,5.26-29.36,6.29-28.69,21.31,67.6-20.69,130.33-62.88,173-122-12.25-7.73-18.99,9.67-27.25,17.75-8.26,8.08-15.76,17.48-25,25Z"/><path class="d" d="M272.53,20.19c-6.31-4.89-11.39,2.26-13,8,3.57.23,6.74,1.76,10,3-.51-4.12,2.27-7.27,3-11Z"/><path class="d" d="M12.53,153.19c-2.98-8.75,3.38-18.87,4.07-26.93.7-8.06,6.33-15.01,8.61-22.39,2.27-7.38,7.39-13.41,11.02-19.98,3.62-6.57,8.81-11.71,13.53-17.47,4.72-5.76,9.69-10.95,15.52-15.48,5.83-4.53,10.68-9.49,17.25-12.75-.04-3.52-1.95-6.51-2-10-6.72,3.25-12.75,7.84-18.75,12.25-6,4.4-10.46,9.76-16,15-5.54,5.24-9.6,10.9-14,17-4.4,6.09-8.85,11.97-11.94,19.06-3.1,7.08-7.64,13.65-9.53,21.47s-7.05,15.48-6.79,24.21c.26,8.73-6.66,17.95-1.76,27.78,4.9,9.83,13.75-3.02,10.77-11.77Z"/><path class="d" d="M375.52,153.2c-3.88-11.27-1.09-19.41-5.06-28.94-3.97-9.52-5.2-16.47-9.15-24.85-3.96-8.38-7.29-14.72-12.03-21.97-4.73-7.26-9.47-12.71-15-19-5.52-6.3-10.48-11.83-17.05-16.95-6.58-5.12-13.25-10-20.7-13.3-5.85,10.27,5.53,13.73,11.75,19.25,6.22,5.52,11.89,10.13,17.48,16.52,5.59,6.39,9.82,11.9,14.85,19.15,5.04,7.24,8.19,13.2,12,22,3.8,8.8,5.69,14.54,8.93,25.07,3.24,10.54,1.63,17.55,2.99,31.01,1.37,13.45,14.88,3.28,10.99-7.99Z"/><path class="d" d="M350.53,155.19c3.71-60.25-52.16-98.91-102-117-.56,3.31-4.73,4.68-5,8,44.23,19.13,97.24,49.87,97,105,3.65.42,6.37,3.57,10,4Z"/><path class="d" d="M62.53,65.19c11.4-8,25.61-14.87,36-23-14.4.5-25.98,12.33-36,23Z"/><path class="d" d="M278.53,44.19c13.03,4.86,24.93,12.84,36,21-9.72-9.63-21.29-25.37-36-21Z"/><path class="d" d="M323.75,147.41c6.28-6.63-1.99-15.78-2.44-22-.46-6.21-6.69-12.1-9.86-17.14s-7.41-9.75-12.22-13.78c-4.82-4.03-10.37-8.05-15.95-11.05-5.59-3-10.87-6.49-16.67-9.33-5.81-2.83-12.11-6.12-17.85-9.15-5.74-3.03-11.13-6.72-17.23-8.77-1.35,2.73-4.58,4.24-6,7,5.67,3.23,11.58,6.66,17.25,9.75,5.68,3.08,11,6.34,16.67,9.33,5.68,2.98,12.16,6.05,17.38,9.62,5.23,3.56,10.82,6.43,15.45,10.55s9.75,9.45,12.5,14.5c2.74,5.06,9.3,11.27,8.76,17.24-.54,5.97,3.93,19.86,10.21,13.23Z"/><path class="d" d="M131.3,93.96c7.29-3.83,12.3-6.63,19.98-11.02,7.69-4.38,10.86-7.15,19.5-12.5,8.64-5.35,4.44-10.82-3.55-4.56-8,6.27-12.75,6-20,11.01-7.26,5-14.09,7.03-21.47,10.53s-13.07,7.45-20.15,10.85c-7.08,3.4-11.55,8.66-18.08,12.92,6.98.27,15.53-3.98,22.77-7.23,7.25-3.25,13.71-6.17,21-10Z"/><path class="d" d="M270.61,97.11c-6.9-3.6-15.6-8.38-22.38-11.62-6.78-3.24-16.66-13.1-20.7-3.3,19.96,11.26,40.08,23.45,62,30-5.03-6.17-12.03-11.47-18.92-15.08Z"/><path class="d" d="M201.53,87.19c29.01,19.6,60.16,37.55,94,47,.57-15.89-20.17-16.53-30.77-22.23s-23.93-12.55-33.98-18.02c-10.06-5.46-23.45-22.36-29.25-6.75Z"/><path class="d" d="M250.53,130.19c-20.16-8.61-38.57-21.42-57-33-1.31,12.18,1.74,28.2,0,40-1.74,11.8,10.41,20.71-.31,28.69-10.71,7.99-21.08-12.5-9.69-16.69v-50c-18.43,11.31-37.03,22.72-57,31,14.14,4.14,29.61,3.08,40.23,16.77s10.73,28.66,9.77,47.23c-.96,18.57,1.43,36.95,0,57s26.12,18.86,24-1,1.38-38.56,0-57-.43-33.45,10.25-46.75,25.75-12.11,39.75-16.25Z"/><path class="d" d="M164.53,177.19c1.19-11.73-3.65-21.99-13.77-28.23-10.12-6.23-21.99-7.56-34.23-7.77-12.24-.21-24.68,1.88-35.92,6.08-11.25,4.19-19.05,10.69-17.08,23.92,27.74-27.09,76.97-27.69,101,6Z"/><path class="d" d="M284.55,143.17c-14.76-3.42-36.86-2.3-50.95,2.09-14.08,4.4-25.02,19.81-20.07,32.93,20.16-35.85,73.41-33.9,100-7,3.19-18.25-14.21-24.61-28.98-28.02Z"/><path class="d" d="M57.53,261.19c-.35-14.75-17.88-8.71-26.75-17.25-8.88-8.53-13.54-16.31-14.25-28.75-.71-12.44,3.89-22.88,12.3-31.7,8.41-8.81,26.84-3.67,24.7-18.3-28.01-1.62-47.97,23.53-47,50,.97,26.47,22.87,49.79,51,46Z"/><path class="d" d="M76.23,179.89c-7.32,6.67,4.53,12.12,10.05,18.55,5.52,6.43,17.05,10.97,25.18,11.82,8.12.85,21.62-1.53,27.32-6.82,5.71-5.28,18.56-11.08,17-18.5s-15.38-11.5-19.25-16.75c10.45,16.76-2.92,39.8-22.93,37.93-20.01-1.88-27.29-26.62-15.07-40.93-9.11,3-14.99,8.02-22.3,14.7Z"/><path class="d" d="M222.78,189.94c6.44,8.53,15.66,14.38,25.53,18.47,9.87,4.1,25.5,2.38,34.52-3.92,9.03-6.3,15.96-11.92,21.7-21.3-8.22-7.12-16.31-15.65-27-18,14.18,13.54,5.81,38.99-14,41s-33.84-21.37-23-38c-4.64,5.23-24.19,13.23-17.75,21.75Z"/><path class="d" d="M323.53,165.19c-2.17,14.95,17.06,9.04,25.25,18.75,8.19,9.72,12.16,17.65,11.75,30.25-.41,12.6-5.15,21.46-14.25,29.75-9.11,8.28-26.37,2.8-26.75,17.25,27.93,4.33,50.52-20.46,51.67-46.33,1.15-25.86-20.25-51.92-47.67-49.67Z"/><path class="d" d="M52.53,202.19v-10c-30.88-1.71-28.19,47.05,0,49,1.99-3.56.58-8.02,1-12-16.28.49-18.22-27.45-1-27Z"/><path class="d" d="M323.53,229.19v11c29.18.87,31.12-51.1,0-48v9c17.28.21,16.92,27.23,0,28Z"/><path class="d" d="M264.78,332.44c9.75-9.66,15.19-19.41,12.75-35.25-2.44-15.84,2.36-30.7,0-48s19.52-16.77,33-15c1.47-12.41,1.8-26.94,0-39-10.51,14.64-27.74,25.27-46,25v72c12.39,5.63,4.08,25.18-8.32,22.32-12.4-2.86-13.21-19.56-1.68-23.32.62-10.35-.83-19.54,0-30,.83-10.46-1.59-19.11,0-30,1.59-10.89-5.92-12.09-15-15,.24,8.13,11.08,19.36,3.25,27.25-7.83,7.88-17.43,4.7-22.26-4.24s11.01-17.51,8-26c-3-8.49-11.36-10.89-16.99-18.01-1.6,21.28,2.89,50.45-1.7,70.3-4.58,19.86-39.81,18.57-43.37-1.23s.62-48.96-2.93-69.07c-2.89,8.34-14.54,9.93-16,19-1.46,9.07,12.97,14.97,7.97,24.97s-14.68,11.07-22.05,3.11,4.79-18.04,4.08-26.08c-9.08,2.87-16.62,4.18-15,15s-.87,19.65,0,30c.87,10.35-.65,18.82,0,29,8.89,2.2,12.11,14.84,5.25,21.25-6.87,6.4-18.68,4.77-21.47-5.03s7.49-15.22,6.22-25.22c-1.27-10,.98-24.42,0-34-.98-9.58,3.91-25.97-6-27-9.91-1.03-17.06-4.54-24.75-9.25-7.7-4.7-10.51-11.26-17.25-15.75-.1,13.1-.19,26.23,1,39,14.6-2.23,36.24-1.9,33,16-3.24,17.9,2.96,31.82,0,48-2.96,16.18,4.06,24.66,13.75,34.25,9.69,9.59,14.93,15.32,25,23,10.08,7.67,18.15,13.52,30.23,17.77,12.07,4.25,29.72,3.9,41.8-.24,12.07-4.15,20.32-9.88,30.47-17.53,10.16-7.64,15.25-13.35,25-23ZM196.9,338.24c-17.57,1.65-34.75-3.94-41.78-20.78-4.5-.64-10.33,1.3-14-1,6.36-2.25,12.48-10.45,18.7-12.3,6.21-1.86,11.83-14.36,18.52-10.92,6.7,3.44,12.87,7.2,19.53.97,6.65-6.24,12.79,6.6,18.95,8.55,6.15,1.96,12.74,10.72,19.3,12.7-16.95-1.05-21.66,21.13-39.22,22.78Z"/><path class="d" d="M53.53,211.19c-11.51,1.24,3.22,13.28,0,0h0Z"/><path class="d" d="M327.27,217.93c3.98-2.99-.77-6.85-3.74-6.74-.55,2.93-.23,9.73,3.74,6.74Z"/><path class="d" d="M67.53,244.19c3.56,20.39,10.17,40.17,21,58,2.33-18.34.33-38.83,1-58h-22Z"/><path class="d" d="M288.53,302.19c10.31-18,18.13-37.44,21-58h-22c.66,19.18-1.33,39.57,1,58Z"/><path class="d" d="M85.53,318.19c-2.69-13.75-21.3-9.79-29.92-17.08-8.62-7.3-18.34-12.04-23.16-22.84s-13.55-15.97-20.92-25.08c5.51,32.23,36.74,68.67,74,65Z"/><path class="d" d="M344.28,278.94c-4.78,10.84-14.97,15.27-23.52,22.48-8.55,7.21-26.55,3.08-29.23,16.77,37.05,3.32,68.77-32.41,74-65-7.7,8.72-16.47,14.92-21.25,25.75Z"/><path class="d" d="M43.53,272.19c4.76,11.1,15.17,20.94,27,24-2.84-13.43-14.8-20.5-27-24Z"/><path class="d" d="M333.53,273.19c-13.37,1.31-23.09,10.86-28,23,12.38-1.17,22.81-12.36,28-23Z"/><path class="d" d="M107.75,343.97c-6.11-2.55-14.7-6.78-20.52-9.48-5.83-2.69-11.53-13.82-17.95-7.55-6.41,6.27,5.47,12.27,11.02,15.48,5.55,3.21,13.49,7.47,20.01,9.99,6.51,2.53,15.18,5.34,22.22,6.78-5.25-3.54-8.66-12.67-14.78-15.22Z"/><path class="d" d="M280.21,339.87c-9.24.12-19.93,11.98-24.68,19.32,8.73-2.16,25.87-7.74,32.92-12.08,7.06-4.33,26.95-12.2,19.83-19.67-7.13-7.46-18.83,12.31-28.07,12.43Z"/><path class="d" d="M189.2,316.38c-5.98-.4-12.9-7.14-19.08-.92,6.83,14.07,31.29,14.51,38,0-6.18-7.05-12.94,1.32-18.92.92Z"/><path class="d" d="M189.2,316.38c-5.98-.4-12.9-7.14-19.08-.92,6.83,14.07,31.29,14.51,38,0-6.18-7.05-12.94,1.32-18.92.92Z"/></g></svg>