<svg xmlns="http://www.w3.org/2000/svg" xmlns:v="https://svgstorm.com"
viewBox = "0 0 400 400"
width="400"
height="400">
<g fill="None" fill-opacity="0.0" stroke="#000000" stroke-opacity="1.00" stroke-width="0.3"><path d="
M 0.00 400.00 
L 400.00 400.00
L 400.00 0.00
L 0.00 0.00
L 0.00 400.00
M 211.00 12.00 
C 184.57 41.79 149.37 56.35 114.77 72.77 C 80.17 89.19 47.51 122.17 48.00 163.00
C 44.44 163.60 41.23 165.37 38.00 167.00
C 36.80 149.69 42.47 129.02 50.92 114.92 C 59.38 100.82 69.32 89.94 82.25 80.25 C 95.18 70.55 109.49 63.98 124.08 57.08 C 138.66 50.17 153.46 42.56 167.70 34.70 C 181.93 26.83 193.14 9.84 211.00 12.00
M 179.00 14.00 
C 160.73 27.20 139.55 34.69 119.00 43.00
C 112.64 28.39 131.27 27.54 141.68 22.68 C 152.09 17.82 167.99 13.38 179.00 14.00
M 241.00 15.00 
C 237.08 21.70 231.10 27.56 225.25 33.25 C 219.39 38.93 213.66 44.25 207.25 49.25 C 200.84 54.24 194.18 58.78 187.25 63.25 C 180.33 67.73 173.02 71.47 165.77 75.77 C 158.52 80.07 150.29 83.63 142.77 87.77 C 135.26 91.91 127.46 94.54 119.92 98.92 C 112.39 103.31 106.35 106.36 99.25 112.25 C 92.15 118.14 88.64 121.21 82.75 129.75 C 76.85 138.28 76.97 142.95 74.00 155.00 C 71.03 167.06 59.39 154.42 64.99 144.99 C 70.59 135.57 69.59 129.13 75.92 121.92 C 82.25 114.71 85.25 109.83 92.25 104.25 C 99.25 98.66 105.64 95.33 113.23 91.23 C 120.82 87.13 128.46 83.98 136.08 80.08 C 143.69 76.17 151.62 72.00 159.08 68.08 C 166.53 64.15 173.28 59.78 180.25 55.25 C 187.22 50.71 193.82 46.66 200.25 41.25 C 206.67 35.84 212.76 32.16 218.75 25.75 C 224.74 19.34 231.25 10.76 241.00 15.00
M 266.00 24.00 
C 223.33 83.12 160.60 125.31 93.00 146.00
C 92.33 130.98 110.80 129.95 121.69 124.69 C 132.59 119.44 144.79 114.47 155.23 108.23 C 165.67 101.99 176.42 96.18 186.23 89.23 C 196.04 82.28 204.51 74.27 213.75 66.75 C 222.99 59.23 230.49 49.83 238.75 41.75 C 247.01 33.67 253.75 16.27 266.00 24.00
M 284.00 32.00 
C 283.27 35.73 280.49 38.88 281.00 43.00
C 277.74 41.76 274.57 40.23 271.00 40.00
C 272.61 34.26 277.69 27.11 284.00 32.00
M 92.00 40.00 
C 92.05 43.49 93.96 46.48 94.00 50.00
C 87.43 53.26 82.58 58.22 76.75 62.75 C 70.92 67.28 65.95 72.47 61.23 78.23 C 56.51 83.99 51.32 89.13 47.70 95.70 C 44.07 102.27 38.95 108.30 36.68 115.68 C 34.40 123.06 28.77 130.01 28.07 138.07 C 27.38 146.13 21.02 156.25 24.00 165.00 C 26.98 173.75 18.13 186.60 13.23 176.77 C 8.33 166.94 15.25 157.72 14.99 148.99 C 14.73 140.26 19.89 132.60 21.78 124.78 C 23.67 116.96 28.21 110.39 31.31 103.31 C 34.40 96.22 38.85 90.34 43.25 84.25 C 47.65 78.15 51.71 72.49 57.25 67.25 C 62.79 62.01 67.25 56.65 73.25 52.25 C 79.25 47.84 85.28 43.25 92.00 40.00
M 308.00 40.00 
C 315.45 43.30 322.12 48.18 328.70 53.30 C 335.27 58.42 340.23 63.95 345.75 70.25 C 351.28 76.54 356.02 81.99 360.75 89.25 C 365.49 96.50 368.82 102.84 372.78 111.22 C 376.73 119.60 377.96 126.55 381.93 136.07 C 385.90 145.60 383.11 153.74 386.99 165.01 C 390.88 176.28 377.37 186.45 376.00 173.00 C 374.64 159.54 376.25 152.53 373.01 141.99 C 369.77 131.46 367.88 125.72 364.08 116.92 C 360.27 108.12 357.12 102.16 352.08 94.92 C 347.05 87.67 342.82 82.16 337.23 75.77 C 331.64 69.38 325.97 64.77 319.75 59.25 C 313.53 53.73 302.15 50.27 308.00 40.00
M 362.00 167.00 
C 358.37 166.57 355.65 163.42 352.00 163.00
C 352.24 107.87 299.23 77.13 255.00 58.00
C 255.27 54.68 259.44 53.31 260.00 50.00
C 309.84 68.09 365.71 106.75 362.00 167.00
M 110.00 54.00 
C 99.61 62.13 85.40 69.00 74.00 77.00
C 84.02 66.33 95.60 54.50 110.00 54.00
M 326.00 77.00 
C 314.93 68.84 303.03 60.86 290.00 56.00
C 304.71 51.63 316.28 67.37 326.00 77.00
M 237.00 75.00 
C 238.42 72.24 241.65 70.73 243.00 68.00
C 249.10 70.05 254.49 73.74 260.23 76.77 C 265.97 79.80 272.27 83.09 278.08 85.92 C 283.88 88.76 289.16 92.25 294.75 95.25 C 300.33 98.25 305.88 102.27 310.70 106.30 C 315.51 110.33 319.75 115.04 322.92 120.08 C 326.09 125.12 332.32 131.01 332.78 137.22 C 333.23 143.44 341.50 152.59 335.22 159.22 C 328.94 165.85 324.47 151.96 325.01 145.99 C 325.55 140.02 318.99 133.81 316.25 128.75 C 313.50 123.70 308.38 118.37 303.75 114.25 C 299.12 110.13 293.53 107.26 288.30 103.70 C 283.08 100.13 276.60 97.06 270.92 94.08 C 265.25 91.09 259.93 87.83 254.25 84.75 C 248.58 81.66 242.67 78.23 237.00 75.00
M 99.00 123.00 
C 105.53 118.74 110.00 113.48 117.08 110.08 C 124.16 106.68 129.85 102.73 137.23 99.23 C 144.61 95.73 151.44 93.70 158.70 88.70 C 165.95 83.69 170.70 83.96 178.70 77.69 C 186.69 71.43 190.89 76.90 182.25 82.25 C 173.61 87.60 170.44 90.37 162.75 94.75 C 155.07 99.14 150.06 101.94 142.77 105.77 C 135.48 109.60 129.02 112.52 121.77 115.77 C 114.53 119.02 105.98 123.27 99.00 123.00
M 301.00 124.00 
C 279.08 117.45 258.96 105.26 239.00 94.00
C 243.04 84.20 252.92 94.06 259.70 97.30 C 266.48 100.54 275.18 105.32 282.08 108.92 C 288.97 112.53 295.97 117.83 301.00 124.00
M 307.00 146.00 
C 273.16 136.55 242.01 118.60 213.00 99.00
C 218.80 83.39 232.19 100.29 242.25 105.75 C 252.30 111.22 265.63 118.07 276.23 123.77 C 286.83 129.47 307.57 130.11 307.00 146.00
M 262.00 142.00 
C 248.00 146.14 232.93 144.95 222.25 158.25 C 211.57 171.55 210.62 186.56 212.00 205.00 C 213.38 223.44 209.88 242.14 212.00 262.00 C 214.12 281.86 186.57 283.05 188.00 263.00 C 189.43 242.95 187.04 224.57 188.00 206.00 C 188.96 187.43 188.85 172.46 178.23 158.77 C 167.61 145.08 152.14 146.14 138.00 142.00
C 157.97 133.72 176.57 122.31 195.00 111.00
C 195.00 127.67 195.00 144.33 195.00 161.00
C 183.61 165.19 193.98 185.68 204.69 177.69 C 215.41 169.71 203.26 160.80 205.00 149.00 C 206.74 137.20 203.69 121.18 205.00 109.00
C 223.43 120.58 241.84 133.39 262.00 142.00
M 176.00 189.00 
C 151.97 155.31 102.74 155.91 75.00 183.00
C 73.03 169.77 80.83 163.27 92.08 159.08 C 103.32 154.88 115.76 152.79 128.00 153.00 C 140.24 153.21 152.11 154.54 162.23 160.77 C 172.35 167.01 177.19 177.27 176.00 189.00
M 325.00 183.00 
C 298.41 156.10 245.16 154.15 225.00 190.00
C 220.05 176.88 230.99 161.47 245.07 157.07 C 259.16 152.68 281.26 151.56 296.02 154.98 C 310.79 158.39 328.19 164.75 325.00 183.00
M 65.00 177.00 
C 67.14 191.63 48.71 186.49 40.30 195.30 C 31.89 204.12 27.29 214.56 28.00 227.00 C 28.71 239.44 33.37 247.22 42.25 255.75 C 51.12 264.29 68.65 258.25 69.00 273.00
C 40.87 276.79 18.97 253.47 18.00 227.00 C 17.03 200.53 36.99 175.38 65.00 177.00
M 110.00 177.00 
C 97.78 191.31 105.06 216.05 125.07 217.93 C 145.08 219.80 158.45 196.76 148.00 180.00
C 151.87 185.25 165.69 189.33 167.25 196.75 C 168.81 204.17 155.96 209.97 150.25 215.25 C 144.55 220.54 131.05 222.92 122.93 222.07 C 114.80 221.22 103.27 216.68 97.75 210.25 C 92.23 203.82 80.38 198.37 87.70 191.70 C 95.01 185.02 100.89 180.00 110.00 177.00
M 316.00 195.00 
C 310.26 204.38 303.33 210.00 294.30 216.30 C 285.28 222.60 269.65 224.32 259.78 220.22 C 249.91 216.13 240.69 210.28 234.25 201.75 C 227.81 193.23 247.36 185.23 252.00 180.00
C 241.16 196.63 255.19 220.01 275.00 218.00 C 294.81 215.99 303.18 190.54 289.00 177.00
C 299.69 179.35 307.78 187.88 316.00 195.00
M 331.00 273.00 
C 331.38 258.55 348.64 264.03 357.75 255.75 C 366.85 247.46 371.59 238.60 372.00 226.00 C 372.41 213.40 368.44 205.47 360.25 195.75 C 352.06 186.04 332.83 191.95 335.00 177.00
C 362.42 174.75 383.82 200.81 382.67 226.67 C 381.52 252.54 358.93 277.33 331.00 273.00
M 64.00 204.00 
C 64.00 207.33 64.00 210.67 64.00 214.00
C 46.78 213.55 48.72 241.49 65.00 241.00
C 64.58 244.98 65.99 249.44 64.00 253.00
C 35.81 251.05 33.12 202.29 64.00 204.00
M 335.00 252.00 
C 335.00 248.33 335.00 244.67 335.00 241.00
C 351.92 240.23 352.28 213.21 335.00 213.00
C 335.00 210.00 335.00 207.00 335.00 204.00
C 366.12 200.90 364.18 252.87 335.00 252.00
M 134.00 302.00 
C 133.35 291.82 134.87 283.35 134.00 273.00 C 133.13 262.65 135.62 253.82 134.00 243.00 C 132.38 232.18 139.92 230.87 149.00 228.00
C 149.71 236.04 137.55 246.12 144.92 254.08 C 152.29 262.04 161.97 260.97 166.97 250.97 C 171.97 240.97 157.54 235.07 159.00 226.00 C 160.46 216.93 172.11 215.34 175.00 207.00
C 178.55 227.11 174.37 256.27 177.93 276.07 C 181.49 295.87 216.72 297.16 221.30 277.30 C 225.89 257.45 221.40 228.28 223.00 207.00
C 228.63 214.12 236.99 216.52 239.99 225.01 C 243.00 233.50 227.16 242.07 231.99 251.01 C 236.82 259.95 246.42 263.13 254.25 255.25 C 262.08 247.36 251.24 236.13 251.00 228.00
C 260.08 230.91 267.59 232.11 266.00 243.00 C 264.41 253.89 266.83 262.54 266.00 273.00 C 265.17 283.46 266.62 292.65 266.00 303.00
C 254.47 306.76 255.28 323.46 267.68 326.32 C 280.08 329.18 288.39 309.63 276.00 304.00
C 276.00 280.00 276.00 256.00 276.00 232.00
C 294.26 232.27 311.49 221.64 322.00 207.00
C 323.80 219.06 323.47 233.59 322.00 246.00
C 308.52 244.23 286.64 243.70 289.00 261.00 C 291.36 278.30 286.56 293.16 289.00 309.00 C 291.44 324.84 286.00 334.59 276.25 344.25 C 266.50 353.90 261.41 359.61 251.25 367.25 C 241.10 374.90 232.85 380.63 220.78 384.78 C 208.70 388.92 191.05 389.27 178.98 385.02 C 166.90 380.77 158.83 374.92 148.75 367.25 C 138.68 359.57 133.44 353.84 123.75 344.25 C 114.06 334.66 107.04 326.18 110.00 310.00 C 112.96 293.82 106.76 279.90 110.00 262.00 C 113.24 244.10 91.60 243.77 77.00 246.00
C 75.81 233.23 75.90 220.10 76.00 207.00
C 82.74 211.49 85.55 218.05 93.25 222.75 C 100.94 227.46 108.09 230.97 118.00 232.00 C 127.91 233.03 123.02 249.42 124.00 259.00 C 124.98 268.58 122.73 283.00 124.00 293.00 C 125.27 303.00 114.99 308.42 117.78 318.22 C 120.57 328.02 132.38 329.65 139.25 323.25 C 146.11 316.84 142.89 304.20 134.00 302.00
M 65.00 223.00 
C 68.22 236.28 53.49 224.24 65.00 223.00
M 335.00 223.00 
C 337.97 222.89 342.72 226.75 338.74 229.74 C 334.77 232.73 334.45 225.93 335.00 223.00
M 101.00 256.00 
C 100.33 275.17 102.33 295.66 100.00 314.00
C 89.17 296.17 82.56 276.39 79.00 256.00
C 86.33 256.00 93.67 256.00 101.00 256.00
M 321.00 256.00 
C 318.13 276.56 310.31 296.00 300.00 314.00
C 297.67 295.57 299.66 275.18 299.00 256.00
C 306.33 256.00 313.67 256.00 321.00 256.00
M 23.00 265.00 
C 30.37 274.11 39.10 279.28 43.92 290.08 C 48.74 300.88 58.46 305.62 67.08 312.92 C 75.70 320.21 94.31 316.25 97.00 330.00
C 59.74 333.67 28.51 297.23 23.00 265.00
M 303.00 330.00 
C 305.68 316.31 323.68 320.44 332.23 313.23 C 340.78 306.02 350.97 301.59 355.75 290.75 C 360.53 279.92 369.30 273.72 377.00 265.00
C 371.77 297.59 340.05 333.32 303.00 330.00
M 82.00 308.00 
C 70.17 304.94 59.76 295.10 55.00 284.00
C 67.20 287.50 79.16 294.57 82.00 308.00
M 345.00 285.00 
C 339.81 295.64 329.38 306.83 317.00 308.00
C 321.91 295.86 331.63 286.31 345.00 285.00
M 134.00 371.00 
C 126.96 369.56 118.29 366.75 111.78 364.22 C 105.26 361.70 97.32 357.44 91.77 354.23 C 86.22 351.02 74.34 345.02 80.75 338.75 C 87.17 332.48 92.87 343.61 98.70 346.30 C 104.52 349.00 113.11 353.23 119.22 355.78 C 125.34 358.33 128.75 367.46 134.00 371.00
M 267.00 371.00 
C 271.75 363.66 282.44 351.80 291.68 351.68 C 300.92 351.56 312.62 331.79 319.75 339.25 C 326.87 346.72 306.98 354.59 299.92 358.92 C 292.87 363.26 275.73 368.84 267.00 371.00 Z"/>
</g>
<g fill="None" fill-opacity="0.0" stroke="#FFFFFF" stroke-opacity="1.00" stroke-width="0.3"><path d="
M 211.00 12.00 
C 193.14 9.84 181.93 26.83 167.70 34.70 C 153.46 42.56 138.66 50.17 124.08 57.08 C 109.49 63.98 95.18 70.55 82.25 80.25 C 69.32 89.94 59.38 100.82 50.92 114.92 C 42.47 129.02 36.80 149.69 38.00 167.00
C 41.23 165.37 44.44 163.60 48.00 163.00
C 47.51 122.17 80.17 89.19 114.77 72.77 C 149.37 56.35 184.57 41.79 211.00 12.00 Z"/>
</g>
<g fill="None" fill-opacity="0.0" stroke="#FFFFFF" stroke-opacity="1.00" stroke-width="0.3"><path d="
M 179.00 14.00 
C 167.99 13.38 152.09 17.82 141.68 22.68 C 131.27 27.54 112.64 28.39 119.00 43.00
C 139.55 34.69 160.73 27.20 179.00 14.00 Z"/>
</g>
<g fill="None" fill-opacity="0.0" stroke="#FFFFFF" stroke-opacity="1.00" stroke-width="0.3"><path d="
M 241.00 15.00 
C 231.25 10.76 224.74 19.34 218.75 25.75 C 212.76 32.16 206.67 35.84 200.25 41.25 C 193.82 46.66 187.22 50.71 180.25 55.25 C 173.28 59.78 166.53 64.15 159.08 68.08 C 151.62 72.00 143.69 76.17 136.08 80.08 C 128.46 83.98 120.82 87.13 113.23 91.23 C 105.64 95.33 99.25 98.66 92.25 104.25 C 85.25 109.83 82.25 114.71 75.92 121.92 C 69.59 129.13 70.59 135.57 64.99 144.99 C 59.39 154.42 71.03 167.06 74.00 155.00 C 76.97 142.95 76.85 138.28 82.75 129.75 C 88.64 121.21 92.15 118.14 99.25 112.25 C 106.35 106.36 112.39 103.31 119.92 98.92 C 127.46 94.54 135.26 91.91 142.77 87.77 C 150.29 83.63 158.52 80.07 165.77 75.77 C 173.02 71.47 180.33 67.73 187.25 63.25 C 194.18 58.78 200.84 54.24 207.25 49.25 C 213.66 44.25 219.39 38.93 225.25 33.25 C 231.10 27.56 237.08 21.70 241.00 15.00 Z"/>
</g>
<g fill="None" fill-opacity="0.0" stroke="#FFFFFF" stroke-opacity="1.00" stroke-width="0.3"><path d="
M 266.00 24.00 
C 253.75 16.27 247.01 33.67 238.75 41.75 C 230.49 49.83 222.99 59.23 213.75 66.75 C 204.51 74.27 196.04 82.28 186.23 89.23 C 176.42 96.18 165.67 101.99 155.23 108.23 C 144.79 114.47 132.59 119.44 121.69 124.69 C 110.80 129.95 92.33 130.98 93.00 146.00
C 160.60 125.31 223.33 83.12 266.00 24.00 Z"/>
</g>
<g fill="None" fill-opacity="0.0" stroke="#FFFFFF" stroke-opacity="1.00" stroke-width="0.3"><path d="
M 284.00 32.00 
C 277.69 27.11 272.61 34.26 271.00 40.00
C 274.57 40.23 277.74 41.76 281.00 43.00
C 280.49 38.88 283.27 35.73 284.00 32.00 Z"/>
</g>
<g fill="None" fill-opacity="0.0" stroke="#FFFFFF" stroke-opacity="1.00" stroke-width="0.3"><path d="
M 92.00 40.00 
C 85.28 43.25 79.25 47.84 73.25 52.25 C 67.25 56.65 62.79 62.01 57.25 67.25 C 51.71 72.49 47.65 78.15 43.25 84.25 C 38.85 90.34 34.40 96.22 31.31 103.31 C 28.21 110.39 23.67 116.96 21.78 124.78 C 19.89 132.60 14.73 140.26 14.99 148.99 C 15.25 157.72 8.33 166.94 13.23 176.77 C 18.13 186.60 26.98 173.75 24.00 165.00 C 21.02 156.25 27.38 146.13 28.07 138.07 C 28.77 130.01 34.40 123.06 36.68 115.68 C 38.95 108.30 44.07 102.27 47.70 95.70 C 51.32 89.13 56.51 83.99 61.23 78.23 C 65.95 72.47 70.92 67.28 76.75 62.75 C 82.58 58.22 87.43 53.26 94.00 50.00
C 93.96 46.48 92.05 43.49 92.00 40.00 Z"/>
</g>
<g fill="None" fill-opacity="0.0" stroke="#FFFFFF" stroke-opacity="1.00" stroke-width="0.3"><path d="
M 308.00 40.00 
C 302.15 50.27 313.53 53.73 319.75 59.25 C 325.97 64.77 331.64 69.38 337.23 75.77 C 342.82 82.16 347.05 87.67 352.08 94.92 C 357.12 102.16 360.27 108.12 364.08 116.92 C 367.88 125.72 369.77 131.46 373.01 141.99 C 376.25 152.53 374.64 159.54 376.00 173.00 C 377.37 186.45 390.88 176.28 386.99 165.01 C 383.11 153.74 385.90 145.60 381.93 136.07 C 377.96 126.55 376.73 119.60 372.78 111.22 C 368.82 102.84 365.49 96.50 360.75 89.25 C 356.02 81.99 351.28 76.54 345.75 70.25 C 340.23 63.95 335.27 58.42 328.70 53.30 C 322.12 48.18 315.45 43.30 308.00 40.00 Z"/>
</g>
<g fill="None" fill-opacity="0.0" stroke="#FFFFFF" stroke-opacity="1.00" stroke-width="0.3"><path d="
M 362.00 167.00 
C 365.71 106.75 309.84 68.09 260.00 50.00
C 259.44 53.31 255.27 54.68 255.00 58.00
C 299.23 77.13 352.24 107.87 352.00 163.00
C 355.65 163.42 358.37 166.57 362.00 167.00 Z"/>
</g>
<g fill="None" fill-opacity="0.0" stroke="#FFFFFF" stroke-opacity="1.00" stroke-width="0.3"><path d="
M 110.00 54.00 
C 95.60 54.50 84.02 66.33 74.00 77.00
C 85.40 69.00 99.61 62.13 110.00 54.00 Z"/>
</g>
<g fill="None" fill-opacity="0.0" stroke="#FFFFFF" stroke-opacity="1.00" stroke-width="0.3"><path d="
M 326.00 77.00 
C 316.28 67.37 304.71 51.63 290.00 56.00
C 303.03 60.86 314.93 68.84 326.00 77.00 Z"/>
</g>
<g fill="None" fill-opacity="0.0" stroke="#FFFFFF" stroke-opacity="1.00" stroke-width="0.3"><path d="
M 237.00 75.00 
C 242.67 78.23 248.58 81.66 254.25 84.75 C 259.93 87.83 265.25 91.09 270.92 94.08 C 276.60 97.06 283.08 100.13 288.30 103.70 C 293.53 107.26 299.12 110.13 303.75 114.25 C 308.38 118.37 313.50 123.70 316.25 128.75 C 318.99 133.81 325.55 140.02 325.01 145.99 C 324.47 151.96 328.94 165.85 335.22 159.22 C 341.50 152.59 333.23 143.44 332.78 137.22 C 332.32 131.01 326.09 125.12 322.92 120.08 C 319.75 115.04 315.51 110.33 310.70 106.30 C 305.88 102.27 300.33 98.25 294.75 95.25 C 289.16 92.25 283.88 88.76 278.08 85.92 C 272.27 83.09 265.97 79.80 260.23 76.77 C 254.49 73.74 249.10 70.05 243.00 68.00
C 241.65 70.73 238.42 72.24 237.00 75.00 Z"/>
</g>
<g fill="None" fill-opacity="0.0" stroke="#FFFFFF" stroke-opacity="1.00" stroke-width="0.3"><path d="
M 99.00 123.00 
C 105.98 123.27 114.53 119.02 121.77 115.77 C 129.02 112.52 135.48 109.60 142.77 105.77 C 150.06 101.94 155.07 99.14 162.75 94.75 C 170.44 90.37 173.61 87.60 182.25 82.25 C 190.89 76.90 186.69 71.43 178.70 77.69 C 170.70 83.96 165.95 83.69 158.70 88.70 C 151.44 93.70 144.61 95.73 137.23 99.23 C 129.85 102.73 124.16 106.68 117.08 110.08 C 110.00 113.48 105.53 118.74 99.00 123.00 Z"/>
</g>
<g fill="None" fill-opacity="0.0" stroke="#FFFFFF" stroke-opacity="1.00" stroke-width="0.3"><path d="
M 301.00 124.00 
C 295.97 117.83 288.97 112.53 282.08 108.92 C 275.18 105.32 266.48 100.54 259.70 97.30 C 252.92 94.06 243.04 84.20 239.00 94.00
C 258.96 105.26 279.08 117.45 301.00 124.00 Z"/>
</g>
<g fill="None" fill-opacity="0.0" stroke="#FFFFFF" stroke-opacity="1.00" stroke-width="0.3"><path d="
M 307.00 146.00 
C 307.57 130.11 286.83 129.47 276.23 123.77 C 265.63 118.07 252.30 111.22 242.25 105.75 C 232.19 100.29 218.80 83.39 213.00 99.00
C 242.01 118.60 273.16 136.55 307.00 146.00 Z"/>
</g>
<g fill="None" fill-opacity="0.0" stroke="#FFFFFF" stroke-opacity="1.00" stroke-width="0.3"><path d="
M 262.00 142.00 
C 241.84 133.39 223.43 120.58 205.00 109.00
C 203.69 121.18 206.74 137.20 205.00 149.00 C 203.26 160.80 215.41 169.71 204.69 177.69 C 193.98 185.68 183.61 165.19 195.00 161.00
C 195.00 144.33 195.00 127.67 195.00 111.00
C 176.57 122.31 157.97 133.72 138.00 142.00
C 152.14 146.14 167.61 145.08 178.23 158.77 C 188.85 172.46 188.96 187.43 188.00 206.00 C 187.04 224.57 189.43 242.95 188.00 263.00 C 186.57 283.05 214.12 281.86 212.00 262.00 C 209.88 242.14 213.38 223.44 212.00 205.00 C 210.62 186.56 211.57 171.55 222.25 158.25 C 232.93 144.95 248.00 146.14 262.00 142.00 Z"/>
</g>
<g fill="None" fill-opacity="0.0" stroke="#FFFFFF" stroke-opacity="1.00" stroke-width="0.3"><path d="
M 176.00 189.00 
C 177.19 177.27 172.35 167.01 162.23 160.77 C 152.11 154.54 140.24 153.21 128.00 153.00 C 115.76 152.79 103.32 154.88 92.08 159.08 C 80.83 163.27 73.03 169.77 75.00 183.00
C 102.74 155.91 151.97 155.31 176.00 189.00 Z"/>
</g>
<g fill="None" fill-opacity="0.0" stroke="#FFFFFF" stroke-opacity="1.00" stroke-width="0.3"><path d="
M 325.00 183.00 
C 328.19 164.75 310.79 158.39 296.02 154.98 C 281.26 151.56 259.16 152.68 245.07 157.07 C 230.99 161.47 220.05 176.88 225.00 190.00
C 245.16 154.15 298.41 156.10 325.00 183.00 Z"/>
</g>
<g fill="None" fill-opacity="0.0" stroke="#FFFFFF" stroke-opacity="1.00" stroke-width="0.3"><path d="
M 65.00 177.00 
C 36.99 175.38 17.03 200.53 18.00 227.00 C 18.97 253.47 40.87 276.79 69.00 273.00
C 68.65 258.25 51.12 264.29 42.25 255.75 C 33.37 247.22 28.71 239.44 28.00 227.00 C 27.29 214.56 31.89 204.12 40.30 195.30 C 48.71 186.49 67.14 191.63 65.00 177.00 Z"/>
</g>
<g fill="None" fill-opacity="0.0" stroke="#FFFFFF" stroke-opacity="1.00" stroke-width="0.3"><path d="
M 110.00 177.00 
C 100.89 180.00 95.01 185.02 87.70 191.70 C 80.38 198.37 92.23 203.82 97.75 210.25 C 103.27 216.68 114.80 221.22 122.93 222.07 C 131.05 222.92 144.55 220.54 150.25 215.25 C 155.96 209.97 168.81 204.17 167.25 196.75 C 165.69 189.33 151.87 185.25 148.00 180.00
C 158.45 196.76 145.08 219.80 125.07 217.93 C 105.06 216.05 97.78 191.31 110.00 177.00 Z"/>
</g>
<g fill="None" fill-opacity="0.0" stroke="#FFFFFF" stroke-opacity="1.00" stroke-width="0.3"><path d="
M 316.00 195.00 
C 307.78 187.88 299.69 179.35 289.00 177.00
C 303.18 190.54 294.81 215.99 275.00 218.00 C 255.19 220.01 241.16 196.63 252.00 180.00
C 247.36 185.23 227.81 193.23 234.25 201.75 C 240.69 210.28 249.91 216.13 259.78 220.22 C 269.65 224.32 285.28 222.60 294.30 216.30 C 303.33 210.00 310.26 204.38 316.00 195.00 Z"/>
</g>
<g fill="None" fill-opacity="0.0" stroke="#FFFFFF" stroke-opacity="1.00" stroke-width="0.3"><path d="
M 331.00 273.00 
C 358.93 277.33 381.52 252.54 382.67 226.67 C 383.82 200.81 362.42 174.75 335.00 177.00
C 332.83 191.95 352.06 186.04 360.25 195.75 C 368.44 205.47 372.41 213.40 372.00 226.00 C 371.59 238.60 366.85 247.46 357.75 255.75 C 348.64 264.03 331.38 258.55 331.00 273.00 Z"/>
</g>
<g fill="None" fill-opacity="0.0" stroke="#FFFFFF" stroke-opacity="1.00" stroke-width="0.3"><path d="
M 64.00 204.00 
C 33.12 202.29 35.81 251.05 64.00 253.00
C 65.99 249.44 64.58 244.98 65.00 241.00
C 48.72 241.49 46.78 213.55 64.00 214.00
C 64.00 210.67 64.00 207.33 64.00 204.00 Z"/>
</g>
<g fill="None" fill-opacity="0.0" stroke="#FFFFFF" stroke-opacity="1.00" stroke-width="0.3"><path d="
M 335.00 252.00 
C 364.18 252.87 366.12 200.90 335.00 204.00
C 335.00 207.00 335.00 210.00 335.00 213.00
C 352.28 213.21 351.92 240.23 335.00 241.00
C 335.00 244.67 335.00 248.33 335.00 252.00 Z"/>
</g>
<g fill="None" fill-opacity="0.0" stroke="#FFFFFF" stroke-opacity="1.00" stroke-width="0.3"><path d="
M 134.00 302.00 
C 142.89 304.20 146.11 316.84 139.25 323.25 C 132.38 329.65 120.57 328.02 117.78 318.22 C 114.99 308.42 125.27 303.00 124.00 293.00 C 122.73 283.00 124.98 268.58 124.00 259.00 C 123.02 249.42 127.91 233.03 118.00 232.00 C 108.09 230.97 100.94 227.46 93.25 222.75 C 85.55 218.05 82.74 211.49 76.00 207.00
C 75.90 220.10 75.81 233.23 77.00 246.00
C 91.60 243.77 113.24 244.10 110.00 262.00 C 106.76 279.90 112.96 293.82 110.00 310.00 C 107.04 326.18 114.06 334.66 123.75 344.25 C 133.44 353.84 138.68 359.57 148.75 367.25 C 158.83 374.92 166.90 380.77 178.98 385.02 C 191.05 389.27 208.70 388.92 220.78 384.78 C 232.85 380.63 241.10 374.90 251.25 367.25 C 261.41 359.61 266.50 353.90 276.25 344.25 C 286.00 334.59 291.44 324.84 289.00 309.00 C 286.56 293.16 291.36 278.30 289.00 261.00 C 286.64 243.70 308.52 244.23 322.00 246.00
C 323.47 233.59 323.80 219.06 322.00 207.00
C 311.49 221.64 294.26 232.27 276.00 232.00
C 276.00 256.00 276.00 280.00 276.00 304.00
C 288.39 309.63 280.08 329.18 267.68 326.32 C 255.28 323.46 254.47 306.76 266.00 303.00
C 266.62 292.65 265.17 283.46 266.00 273.00 C 266.83 262.54 264.41 253.89 266.00 243.00 C 267.59 232.11 260.08 230.91 251.00 228.00
C 251.24 236.13 262.08 247.36 254.25 255.25 C 246.42 263.13 236.82 259.95 231.99 251.01 C 227.16 242.07 243.00 233.50 239.99 225.01 C 236.99 216.52 228.63 214.12 223.00 207.00
C 221.40 228.28 225.89 257.45 221.30 277.30 C 216.72 297.16 181.49 295.87 177.93 276.07 C 174.37 256.27 178.55 227.11 175.00 207.00
C 172.11 215.34 160.46 216.93 159.00 226.00 C 157.54 235.07 171.97 240.97 166.97 250.97 C 161.97 260.97 152.29 262.04 144.92 254.08 C 137.55 246.12 149.71 236.04 149.00 228.00
C 139.92 230.87 132.38 232.18 134.00 243.00 C 135.62 253.82 133.13 262.65 134.00 273.00 C 134.87 283.35 133.35 291.82 134.00 302.00
M 247.00 328.00 
C 230.05 326.95 225.34 349.13 207.78 350.78 C 190.21 352.43 173.03 346.84 166.00 330.00
C 161.50 329.36 155.67 331.30 152.00 329.00
C 158.36 326.75 164.48 318.55 170.70 316.70 C 176.91 314.84 182.53 302.34 189.22 305.78 C 195.92 309.22 202.09 312.98 208.75 306.75 C 215.40 300.51 221.54 313.35 227.70 315.30 C 233.85 317.26 240.44 326.02 247.00 328.00 Z"/>
</g>
<g fill="None" fill-opacity="0.0" stroke="#FFFFFF" stroke-opacity="1.00" stroke-width="0.3"><path d="
M 65.00 223.00 
C 53.49 224.24 68.22 236.28 65.00 223.00 Z"/>
</g>
<g fill="None" fill-opacity="0.0" stroke="#FFFFFF" stroke-opacity="1.00" stroke-width="0.3"><path d="
M 335.00 223.00 
C 334.45 225.93 334.77 232.73 338.74 229.74 C 342.72 226.75 337.97 222.89 335.00 223.00 Z"/>
</g>
<g fill="None" fill-opacity="0.0" stroke="#FFFFFF" stroke-opacity="1.00" stroke-width="0.3"><path d="
M 101.00 256.00 
C 93.67 256.00 86.33 256.00 79.00 256.00
C 82.56 276.39 89.17 296.17 100.00 314.00
C 102.33 295.66 100.33 275.17 101.00 256.00 Z"/>
</g>
<g fill="None" fill-opacity="0.0" stroke="#FFFFFF" stroke-opacity="1.00" stroke-width="0.3"><path d="
M 321.00 256.00 
C 313.67 256.00 306.33 256.00 299.00 256.00
C 299.66 275.18 297.67 295.57 300.00 314.00
C 310.31 296.00 318.13 276.56 321.00 256.00 Z"/>
</g>
<g fill="None" fill-opacity="0.0" stroke="#FFFFFF" stroke-opacity="1.00" stroke-width="0.3"><path d="
M 23.00 265.00 
C 28.51 297.23 59.74 333.67 97.00 330.00
C 94.31 316.25 75.70 320.21 67.08 312.92 C 58.46 305.62 48.74 300.88 43.92 290.08 C 39.10 279.28 30.37 274.11 23.00 265.00 Z"/>
</g>
<g fill="None" fill-opacity="0.0" stroke="#FFFFFF" stroke-opacity="1.00" stroke-width="0.3"><path d="
M 303.00 330.00 
C 340.05 333.32 371.77 297.59 377.00 265.00
C 369.30 273.72 360.53 279.92 355.75 290.75 C 350.97 301.59 340.78 306.02 332.23 313.23 C 323.68 320.44 305.68 316.31 303.00 330.00 Z"/>
</g>
<g fill="None" fill-opacity="0.0" stroke="#FFFFFF" stroke-opacity="1.00" stroke-width="0.3"><path d="
M 82.00 308.00 
C 79.16 294.57 67.20 287.50 55.00 284.00
C 59.76 295.10 70.17 304.94 82.00 308.00 Z"/>
</g>
<g fill="None" fill-opacity="0.0" stroke="#FFFFFF" stroke-opacity="1.00" stroke-width="0.3"><path d="
M 345.00 285.00 
C 331.63 286.31 321.91 295.86 317.00 308.00
C 329.38 306.83 339.81 295.64 345.00 285.00 Z"/>
</g>
<g fill="None" fill-opacity="0.0" stroke="#000000" stroke-opacity="1.00" stroke-width="0.3"><path d="
M 247.00 328.00 
C 240.44 326.02 233.85 317.26 227.70 315.30 C 221.54 313.35 215.40 300.51 208.75 306.75 C 202.09 312.98 195.92 309.22 189.22 305.78 C 182.53 302.34 176.91 314.84 170.70 316.70 C 164.48 318.55 158.36 326.75 152.00 329.00
C 155.67 331.30 161.50 329.36 166.00 330.00
C 173.03 346.84 190.21 352.43 207.78 350.78 C 225.34 349.13 230.05 326.95 247.00 328.00
M 219.00 328.00 
C 212.29 342.51 187.83 342.07 181.00 328.00
C 187.18 321.78 194.10 328.52 200.08 328.92 C 206.06 329.32 212.82 320.95 219.00 328.00 Z"/>
</g>
<g fill="None" fill-opacity="0.0" stroke="#FFFFFF" stroke-opacity="1.00" stroke-width="0.3"><path d="
M 219.00 328.00 
C 212.82 320.95 206.06 329.32 200.08 328.92 C 194.10 328.52 187.18 321.78 181.00 328.00
C 187.83 342.07 212.29 342.51 219.00 328.00 Z"/>
</g>
<g fill="None" fill-opacity="0.0" stroke="#FFFFFF" stroke-opacity="1.00" stroke-width="0.3"><path d="
M 134.00 371.00 
C 128.75 367.46 125.34 358.33 119.22 355.78 C 113.11 353.23 104.52 349.00 98.70 346.30 C 92.87 343.61 87.17 332.48 80.75 338.75 C 74.34 345.02 86.22 351.02 91.77 354.23 C 97.32 357.44 105.26 361.70 111.78 364.22 C 118.29 366.75 126.96 369.56 134.00 371.00 Z"/>
</g>
<g fill="None" fill-opacity="0.0" stroke="#FFFFFF" stroke-opacity="1.00" stroke-width="0.3"><path d="
M 267.00 371.00 
C 275.73 368.84 292.87 363.26 299.92 358.92 C 306.98 354.59 326.87 346.72 319.75 339.25 C 312.62 331.79 300.92 351.56 291.68 351.68 C 282.44 351.80 271.75 363.66 267.00 371.00 Z"/>
</g>
<g fill="#000000" fill-opacity="1.00" stroke="None">
<path d="
M 0.00 400.00 
L 400.00 400.00
L 400.00 0.00
L 0.00 0.00
L 0.00 400.00
M 211.00 12.00 
C 184.57 41.79 149.37 56.35 114.77 72.77 C 80.17 89.19 47.51 122.17 48.00 163.00
C 44.44 163.60 41.23 165.37 38.00 167.00
C 36.80 149.69 42.47 129.02 50.92 114.92 C 59.38 100.82 69.32 89.94 82.25 80.25 C 95.18 70.55 109.49 63.98 124.08 57.08 C 138.66 50.17 153.46 42.56 167.70 34.70 C 181.93 26.83 193.14 9.84 211.00 12.00
M 179.00 14.00 
C 160.73 27.20 139.55 34.69 119.00 43.00
C 112.64 28.39 131.27 27.54 141.68 22.68 C 152.09 17.82 167.99 13.38 179.00 14.00
M 241.00 15.00 
C 237.08 21.70 231.10 27.56 225.25 33.25 C 219.39 38.93 213.66 44.25 207.25 49.25 C 200.84 54.24 194.18 58.78 187.25 63.25 C 180.33 67.73 173.02 71.47 165.77 75.77 C 158.52 80.07 150.29 83.63 142.77 87.77 C 135.26 91.91 127.46 94.54 119.92 98.92 C 112.39 103.31 106.35 106.36 99.25 112.25 C 92.15 118.14 88.64 121.21 82.75 129.75 C 76.85 138.28 76.97 142.95 74.00 155.00 C 71.03 167.06 59.39 154.42 64.99 144.99 C 70.59 135.57 69.59 129.13 75.92 121.92 C 82.25 114.71 85.25 109.83 92.25 104.25 C 99.25 98.66 105.64 95.33 113.23 91.23 C 120.82 87.13 128.46 83.98 136.08 80.08 C 143.69 76.17 151.62 72.00 159.08 68.08 C 166.53 64.15 173.28 59.78 180.25 55.25 C 187.22 50.71 193.82 46.66 200.25 41.25 C 206.67 35.84 212.76 32.16 218.75 25.75 C 224.74 19.34 231.25 10.76 241.00 15.00
M 266.00 24.00 
C 223.33 83.12 160.60 125.31 93.00 146.00
C 92.33 130.98 110.80 129.95 121.69 124.69 C 132.59 119.44 144.79 114.47 155.23 108.23 C 165.67 101.99 176.42 96.18 186.23 89.23 C 196.04 82.28 204.51 74.27 213.75 66.75 C 222.99 59.23 230.49 49.83 238.75 41.75 C 247.01 33.67 253.75 16.27 266.00 24.00
M 284.00 32.00 
C 283.27 35.73 280.49 38.88 281.00 43.00
C 277.74 41.76 274.57 40.23 271.00 40.00
C 272.61 34.26 277.69 27.11 284.00 32.00
M 92.00 40.00 
C 92.05 43.49 93.96 46.48 94.00 50.00
C 87.43 53.26 82.58 58.22 76.75 62.75 C 70.92 67.28 65.95 72.47 61.23 78.23 C 56.51 83.99 51.32 89.13 47.70 95.70 C 44.07 102.27 38.95 108.30 36.68 115.68 C 34.40 123.06 28.77 130.01 28.07 138.07 C 27.38 146.13 21.02 156.25 24.00 165.00 C 26.98 173.75 18.13 186.60 13.23 176.77 C 8.33 166.94 15.25 157.72 14.99 148.99 C 14.73 140.26 19.89 132.60 21.78 124.78 C 23.67 116.96 28.21 110.39 31.31 103.31 C 34.40 96.22 38.85 90.34 43.25 84.25 C 47.65 78.15 51.71 72.49 57.25 67.25 C 62.79 62.01 67.25 56.65 73.25 52.25 C 79.25 47.84 85.28 43.25 92.00 40.00
M 308.00 40.00 
C 315.45 43.30 322.12 48.18 328.70 53.30 C 335.27 58.42 340.23 63.95 345.75 70.25 C 351.28 76.54 356.02 81.99 360.75 89.25 C 365.49 96.50 368.82 102.84 372.78 111.22 C 376.73 119.60 377.96 126.55 381.93 136.07 C 385.90 145.60 383.11 153.74 386.99 165.01 C 390.88 176.28 377.37 186.45 376.00 173.00 C 374.64 159.54 376.25 152.53 373.01 141.99 C 369.77 131.46 367.88 125.72 364.08 116.92 C 360.27 108.12 357.12 102.16 352.08 94.92 C 347.05 87.67 342.82 82.16 337.23 75.77 C 331.64 69.38 325.97 64.77 319.75 59.25 C 313.53 53.73 302.15 50.27 308.00 40.00
M 362.00 167.00 
C 358.37 166.57 355.65 163.42 352.00 163.00
C 352.24 107.87 299.23 77.13 255.00 58.00
C 255.27 54.68 259.44 53.31 260.00 50.00
C 309.84 68.09 365.71 106.75 362.00 167.00
M 110.00 54.00 
C 99.61 62.13 85.40 69.00 74.00 77.00
C 84.02 66.33 95.60 54.50 110.00 54.00
M 326.00 77.00 
C 314.93 68.84 303.03 60.86 290.00 56.00
C 304.71 51.63 316.28 67.37 326.00 77.00
M 237.00 75.00 
C 238.42 72.24 241.65 70.73 243.00 68.00
C 249.10 70.05 254.49 73.74 260.23 76.77 C 265.97 79.80 272.27 83.09 278.08 85.92 C 283.88 88.76 289.16 92.25 294.75 95.25 C 300.33 98.25 305.88 102.27 310.70 106.30 C 315.51 110.33 319.75 115.04 322.92 120.08 C 326.09 125.12 332.32 131.01 332.78 137.22 C 333.23 143.44 341.50 152.59 335.22 159.22 C 328.94 165.85 324.47 151.96 325.01 145.99 C 325.55 140.02 318.99 133.81 316.25 128.75 C 313.50 123.70 308.38 118.37 303.75 114.25 C 299.12 110.13 293.53 107.26 288.30 103.70 C 283.08 100.13 276.60 97.06 270.92 94.08 C 265.25 91.09 259.93 87.83 254.25 84.75 C 248.58 81.66 242.67 78.23 237.00 75.00
M 99.00 123.00 
C 105.53 118.74 110.00 113.48 117.08 110.08 C 124.16 106.68 129.85 102.73 137.23 99.23 C 144.61 95.73 151.44 93.70 158.70 88.70 C 165.95 83.69 170.70 83.96 178.70 77.69 C 186.69 71.43 190.89 76.90 182.25 82.25 C 173.61 87.60 170.44 90.37 162.75 94.75 C 155.07 99.14 150.06 101.94 142.77 105.77 C 135.48 109.60 129.02 112.52 121.77 115.77 C 114.53 119.02 105.98 123.27 99.00 123.00
M 301.00 124.00 
C 279.08 117.45 258.96 105.26 239.00 94.00
C 243.04 84.20 252.92 94.06 259.70 97.30 C 266.48 100.54 275.18 105.32 282.08 108.92 C 288.97 112.53 295.97 117.83 301.00 124.00
M 307.00 146.00 
C 273.16 136.55 242.01 118.60 213.00 99.00
C 218.80 83.39 232.19 100.29 242.25 105.75 C 252.30 111.22 265.63 118.07 276.23 123.77 C 286.83 129.47 307.57 130.11 307.00 146.00
M 262.00 142.00 
C 248.00 146.14 232.93 144.95 222.25 158.25 C 211.57 171.55 210.62 186.56 212.00 205.00 C 213.38 223.44 209.88 242.14 212.00 262.00 C 214.12 281.86 186.57 283.05 188.00 263.00 C 189.43 242.95 187.04 224.57 188.00 206.00 C 188.96 187.43 188.85 172.46 178.23 158.77 C 167.61 145.08 152.14 146.14 138.00 142.00
C 157.97 133.72 176.57 122.31 195.00 111.00
C 195.00 127.67 195.00 144.33 195.00 161.00
C 183.61 165.19 193.98 185.68 204.69 177.69 C 215.41 169.71 203.26 160.80 205.00 149.00 C 206.74 137.20 203.69 121.18 205.00 109.00
C 223.43 120.58 241.84 133.39 262.00 142.00
M 176.00 189.00 
C 151.97 155.31 102.74 155.91 75.00 183.00
C 73.03 169.77 80.83 163.27 92.08 159.08 C 103.32 154.88 115.76 152.79 128.00 153.00 C 140.24 153.21 152.11 154.54 162.23 160.77 C 172.35 167.01 177.19 177.27 176.00 189.00
M 325.00 183.00 
C 298.41 156.10 245.16 154.15 225.00 190.00
C 220.05 176.88 230.99 161.47 245.07 157.07 C 259.16 152.68 281.26 151.56 296.02 154.98 C 310.79 158.39 328.19 164.75 325.00 183.00
M 65.00 177.00 
C 67.14 191.63 48.71 186.49 40.30 195.30 C 31.89 204.12 27.29 214.56 28.00 227.00 C 28.71 239.44 33.37 247.22 42.25 255.75 C 51.12 264.29 68.65 258.25 69.00 273.00
C 40.87 276.79 18.97 253.47 18.00 227.00 C 17.03 200.53 36.99 175.38 65.00 177.00
M 110.00 177.00 
C 97.78 191.31 105.06 216.05 125.07 217.93 C 145.08 219.80 158.45 196.76 148.00 180.00
C 151.87 185.25 165.69 189.33 167.25 196.75 C 168.81 204.17 155.96 209.97 150.25 215.25 C 144.55 220.54 131.05 222.92 122.93 222.07 C 114.80 221.22 103.27 216.68 97.75 210.25 C 92.23 203.82 80.38 198.37 87.70 191.70 C 95.01 185.02 100.89 180.00 110.00 177.00
M 316.00 195.00 
C 310.26 204.38 303.33 210.00 294.30 216.30 C 285.28 222.60 269.65 224.32 259.78 220.22 C 249.91 216.13 240.69 210.28 234.25 201.75 C 227.81 193.23 247.36 185.23 252.00 180.00
C 241.16 196.63 255.19 220.01 275.00 218.00 C 294.81 215.99 303.18 190.54 289.00 177.00
C 299.69 179.35 307.78 187.88 316.00 195.00
M 331.00 273.00 
C 331.38 258.55 348.64 264.03 357.75 255.75 C 366.85 247.46 371.59 238.60 372.00 226.00 C 372.41 213.40 368.44 205.47 360.25 195.75 C 352.06 186.04 332.83 191.95 335.00 177.00
C 362.42 174.75 383.82 200.81 382.67 226.67 C 381.52 252.54 358.93 277.33 331.00 273.00
M 64.00 204.00 
C 64.00 207.33 64.00 210.67 64.00 214.00
C 46.78 213.55 48.72 241.49 65.00 241.00
C 64.58 244.98 65.99 249.44 64.00 253.00
C 35.81 251.05 33.12 202.29 64.00 204.00
M 335.00 252.00 
C 335.00 248.33 335.00 244.67 335.00 241.00
C 351.92 240.23 352.28 213.21 335.00 213.00
C 335.00 210.00 335.00 207.00 335.00 204.00
C 366.12 200.90 364.18 252.87 335.00 252.00
M 134.00 302.00 
C 133.35 291.82 134.87 283.35 134.00 273.00 C 133.13 262.65 135.62 253.82 134.00 243.00 C 132.38 232.18 139.92 230.87 149.00 228.00
C 149.71 236.04 137.55 246.12 144.92 254.08 C 152.29 262.04 161.97 260.97 166.97 250.97 C 171.97 240.97 157.54 235.07 159.00 226.00 C 160.46 216.93 172.11 215.34 175.00 207.00
C 178.55 227.11 174.37 256.27 177.93 276.07 C 181.49 295.87 216.72 297.16 221.30 277.30 C 225.89 257.45 221.40 228.28 223.00 207.00
C 228.63 214.12 236.99 216.52 239.99 225.01 C 243.00 233.50 227.16 242.07 231.99 251.01 C 236.82 259.95 246.42 263.13 254.25 255.25 C 262.08 247.36 251.24 236.13 251.00 228.00
C 260.08 230.91 267.59 232.11 266.00 243.00 C 264.41 253.89 266.83 262.54 266.00 273.00 C 265.17 283.46 266.62 292.65 266.00 303.00
C 254.47 306.76 255.28 323.46 267.68 326.32 C 280.08 329.18 288.39 309.63 276.00 304.00
C 276.00 280.00 276.00 256.00 276.00 232.00
C 294.26 232.27 311.49 221.64 322.00 207.00
C 323.80 219.06 323.47 233.59 322.00 246.00
C 308.52 244.23 286.64 243.70 289.00 261.00 C 291.36 278.30 286.56 293.16 289.00 309.00 C 291.44 324.84 286.00 334.59 276.25 344.25 C 266.50 353.90 261.41 359.61 251.25 367.25 C 241.10 374.90 232.85 380.63 220.78 384.78 C 208.70 388.92 191.05 389.27 178.98 385.02 C 166.90 380.77 158.83 374.92 148.75 367.25 C 138.68 359.57 133.44 353.84 123.75 344.25 C 114.06 334.66 107.04 326.18 110.00 310.00 C 112.96 293.82 106.76 279.90 110.00 262.00 C 113.24 244.10 91.60 243.77 77.00 246.00
C 75.81 233.23 75.90 220.10 76.00 207.00
C 82.74 211.49 85.55 218.05 93.25 222.75 C 100.94 227.46 108.09 230.97 118.00 232.00 C 127.91 233.03 123.02 249.42 124.00 259.00 C 124.98 268.58 122.73 283.00 124.00 293.00 C 125.27 303.00 114.99 308.42 117.78 318.22 C 120.57 328.02 132.38 329.65 139.25 323.25 C 146.11 316.84 142.89 304.20 134.00 302.00
M 65.00 223.00 
C 68.22 236.28 53.49 224.24 65.00 223.00
M 335.00 223.00 
C 337.97 222.89 342.72 226.75 338.74 229.74 C 334.77 232.73 334.45 225.93 335.00 223.00
M 101.00 256.00 
C 100.33 275.17 102.33 295.66 100.00 314.00
C 89.17 296.17 82.56 276.39 79.00 256.00
C 86.33 256.00 93.67 256.00 101.00 256.00
M 321.00 256.00 
C 318.13 276.56 310.31 296.00 300.00 314.00
C 297.67 295.57 299.66 275.18 299.00 256.00
C 306.33 256.00 313.67 256.00 321.00 256.00
M 23.00 265.00 
C 30.37 274.11 39.10 279.28 43.92 290.08 C 48.74 300.88 58.46 305.62 67.08 312.92 C 75.70 320.21 94.31 316.25 97.00 330.00
C 59.74 333.67 28.51 297.23 23.00 265.00
M 303.00 330.00 
C 305.68 316.31 323.68 320.44 332.23 313.23 C 340.78 306.02 350.97 301.59 355.75 290.75 C 360.53 279.92 369.30 273.72 377.00 265.00
C 371.77 297.59 340.05 333.32 303.00 330.00
M 82.00 308.00 
C 70.17 304.94 59.76 295.10 55.00 284.00
C 67.20 287.50 79.16 294.57 82.00 308.00
M 345.00 285.00 
C 339.81 295.64 329.38 306.83 317.00 308.00
C 321.91 295.86 331.63 286.31 345.00 285.00
M 134.00 371.00 
C 126.96 369.56 118.29 366.75 111.78 364.22 C 105.26 361.70 97.32 357.44 91.77 354.23 C 86.22 351.02 74.34 345.02 80.75 338.75 C 87.17 332.48 92.87 343.61 98.70 346.30 C 104.52 349.00 113.11 353.23 119.22 355.78 C 125.34 358.33 128.75 367.46 134.00 371.00
M 267.00 371.00 
C 271.75 363.66 282.44 351.80 291.68 351.68 C 300.92 351.56 312.62 331.79 319.75 339.25 C 326.87 346.72 306.98 354.59 299.92 358.92 C 292.87 363.26 275.73 368.84 267.00 371.00 Z"/>
</g>
<g fill="#FFFFFF" fill-opacity="1.00" stroke="None">
<path d="
M 211.00 12.00 
C 193.14 9.84 181.93 26.83 167.70 34.70 C 153.46 42.56 138.66 50.17 124.08 57.08 C 109.49 63.98 95.18 70.55 82.25 80.25 C 69.32 89.94 59.38 100.82 50.92 114.92 C 42.47 129.02 36.80 149.69 38.00 167.00
C 41.23 165.37 44.44 163.60 48.00 163.00
C 47.51 122.17 80.17 89.19 114.77 72.77 C 149.37 56.35 184.57 41.79 211.00 12.00 Z"/>
</g>
<g fill="#FFFFFF" fill-opacity="1.00" stroke="None">
<path d="
M 179.00 14.00 
C 167.99 13.38 152.09 17.82 141.68 22.68 C 131.27 27.54 112.64 28.39 119.00 43.00
C 139.55 34.69 160.73 27.20 179.00 14.00 Z"/>
</g>
<g fill="#FFFFFF" fill-opacity="1.00" stroke="None">
<path d="
M 241.00 15.00 
C 231.25 10.76 224.74 19.34 218.75 25.75 C 212.76 32.16 206.67 35.84 200.25 41.25 C 193.82 46.66 187.22 50.71 180.25 55.25 C 173.28 59.78 166.53 64.15 159.08 68.08 C 151.62 72.00 143.69 76.17 136.08 80.08 C 128.46 83.98 120.82 87.13 113.23 91.23 C 105.64 95.33 99.25 98.66 92.25 104.25 C 85.25 109.83 82.25 114.71 75.92 121.92 C 69.59 129.13 70.59 135.57 64.99 144.99 C 59.39 154.42 71.03 167.06 74.00 155.00 C 76.97 142.95 76.85 138.28 82.75 129.75 C 88.64 121.21 92.15 118.14 99.25 112.25 C 106.35 106.36 112.39 103.31 119.92 98.92 C 127.46 94.54 135.26 91.91 142.77 87.77 C 150.29 83.63 158.52 80.07 165.77 75.77 C 173.02 71.47 180.33 67.73 187.25 63.25 C 194.18 58.78 200.84 54.24 207.25 49.25 C 213.66 44.25 219.39 38.93 225.25 33.25 C 231.10 27.56 237.08 21.70 241.00 15.00 Z"/>
</g>
<g fill="#FFFFFF" fill-opacity="1.00" stroke="None">
<path d="
M 266.00 24.00 
C 253.75 16.27 247.01 33.67 238.75 41.75 C 230.49 49.83 222.99 59.23 213.75 66.75 C 204.51 74.27 196.04 82.28 186.23 89.23 C 176.42 96.18 165.67 101.99 155.23 108.23 C 144.79 114.47 132.59 119.44 121.69 124.69 C 110.80 129.95 92.33 130.98 93.00 146.00
C 160.60 125.31 223.33 83.12 266.00 24.00 Z"/>
</g>
<g fill="#FFFFFF" fill-opacity="1.00" stroke="None">
<path d="
M 284.00 32.00 
C 277.69 27.11 272.61 34.26 271.00 40.00
C 274.57 40.23 277.74 41.76 281.00 43.00
C 280.49 38.88 283.27 35.73 284.00 32.00 Z"/>
</g>
<g fill="#FFFFFF" fill-opacity="1.00" stroke="None">
<path d="
M 92.00 40.00 
C 85.28 43.25 79.25 47.84 73.25 52.25 C 67.25 56.65 62.79 62.01 57.25 67.25 C 51.71 72.49 47.65 78.15 43.25 84.25 C 38.85 90.34 34.40 96.22 31.31 103.31 C 28.21 110.39 23.67 116.96 21.78 124.78 C 19.89 132.60 14.73 140.26 14.99 148.99 C 15.25 157.72 8.33 166.94 13.23 176.77 C 18.13 186.60 26.98 173.75 24.00 165.00 C 21.02 156.25 27.38 146.13 28.07 138.07 C 28.77 130.01 34.40 123.06 36.68 115.68 C 38.95 108.30 44.07 102.27 47.70 95.70 C 51.32 89.13 56.51 83.99 61.23 78.23 C 65.95 72.47 70.92 67.28 76.75 62.75 C 82.58 58.22 87.43 53.26 94.00 50.00
C 93.96 46.48 92.05 43.49 92.00 40.00 Z"/>
</g>
<g fill="#FFFFFF" fill-opacity="1.00" stroke="None">
<path d="
M 308.00 40.00 
C 302.15 50.27 313.53 53.73 319.75 59.25 C 325.97 64.77 331.64 69.38 337.23 75.77 C 342.82 82.16 347.05 87.67 352.08 94.92 C 357.12 102.16 360.27 108.12 364.08 116.92 C 367.88 125.72 369.77 131.46 373.01 141.99 C 376.25 152.53 374.64 159.54 376.00 173.00 C 377.37 186.45 390.88 176.28 386.99 165.01 C 383.11 153.74 385.90 145.60 381.93 136.07 C 377.96 126.55 376.73 119.60 372.78 111.22 C 368.82 102.84 365.49 96.50 360.75 89.25 C 356.02 81.99 351.28 76.54 345.75 70.25 C 340.23 63.95 335.27 58.42 328.70 53.30 C 322.12 48.18 315.45 43.30 308.00 40.00 Z"/>
</g>
<g fill="#FFFFFF" fill-opacity="1.00" stroke="None">
<path d="
M 362.00 167.00 
C 365.71 106.75 309.84 68.09 260.00 50.00
C 259.44 53.31 255.27 54.68 255.00 58.00
C 299.23 77.13 352.24 107.87 352.00 163.00
C 355.65 163.42 358.37 166.57 362.00 167.00 Z"/>
</g>
<g fill="#FFFFFF" fill-opacity="1.00" stroke="None">
<path d="
M 110.00 54.00 
C 95.60 54.50 84.02 66.33 74.00 77.00
C 85.40 69.00 99.61 62.13 110.00 54.00 Z"/>
</g>
<g fill="#FFFFFF" fill-opacity="1.00" stroke="None">
<path d="
M 326.00 77.00 
C 316.28 67.37 304.71 51.63 290.00 56.00
C 303.03 60.86 314.93 68.84 326.00 77.00 Z"/>
</g>
<g fill="#FFFFFF" fill-opacity="1.00" stroke="None">
<path d="
M 237.00 75.00 
C 242.67 78.23 248.58 81.66 254.25 84.75 C 259.93 87.83 265.25 91.09 270.92 94.08 C 276.60 97.06 283.08 100.13 288.30 103.70 C 293.53 107.26 299.12 110.13 303.75 114.25 C 308.38 118.37 313.50 123.70 316.25 128.75 C 318.99 133.81 325.55 140.02 325.01 145.99 C 324.47 151.96 328.94 165.85 335.22 159.22 C 341.50 152.59 333.23 143.44 332.78 137.22 C 332.32 131.01 326.09 125.12 322.92 120.08 C 319.75 115.04 315.51 110.33 310.70 106.30 C 305.88 102.27 300.33 98.25 294.75 95.25 C 289.16 92.25 283.88 88.76 278.08 85.92 C 272.27 83.09 265.97 79.80 260.23 76.77 C 254.49 73.74 249.10 70.05 243.00 68.00
C 241.65 70.73 238.42 72.24 237.00 75.00 Z"/>
</g>
<g fill="#FFFFFF" fill-opacity="1.00" stroke="None">
<path d="
M 99.00 123.00 
C 105.98 123.27 114.53 119.02 121.77 115.77 C 129.02 112.52 135.48 109.60 142.77 105.77 C 150.06 101.94 155.07 99.14 162.75 94.75 C 170.44 90.37 173.61 87.60 182.25 82.25 C 190.89 76.90 186.69 71.43 178.70 77.69 C 170.70 83.96 165.95 83.69 158.70 88.70 C 151.44 93.70 144.61 95.73 137.23 99.23 C 129.85 102.73 124.16 106.68 117.08 110.08 C 110.00 113.48 105.53 118.74 99.00 123.00 Z"/>
</g>
<g fill="#FFFFFF" fill-opacity="1.00" stroke="None">
<path d="
M 301.00 124.00 
C 295.97 117.83 288.97 112.53 282.08 108.92 C 275.18 105.32 266.48 100.54 259.70 97.30 C 252.92 94.06 243.04 84.20 239.00 94.00
C 258.96 105.26 279.08 117.45 301.00 124.00 Z"/>
</g>
<g fill="#FFFFFF" fill-opacity="1.00" stroke="None">
<path d="
M 307.00 146.00 
C 307.57 130.11 286.83 129.47 276.23 123.77 C 265.63 118.07 252.30 111.22 242.25 105.75 C 232.19 100.29 218.80 83.39 213.00 99.00
C 242.01 118.60 273.16 136.55 307.00 146.00 Z"/>
</g>
<g fill="#FFFFFF" fill-opacity="1.00" stroke="None">
<path d="
M 262.00 142.00 
C 241.84 133.39 223.43 120.58 205.00 109.00
C 203.69 121.18 206.74 137.20 205.00 149.00 C 203.26 160.80 215.41 169.71 204.69 177.69 C 193.98 185.68 183.61 165.19 195.00 161.00
C 195.00 144.33 195.00 127.67 195.00 111.00
C 176.57 122.31 157.97 133.72 138.00 142.00
C 152.14 146.14 167.61 145.08 178.23 158.77 C 188.85 172.46 188.96 187.43 188.00 206.00 C 187.04 224.57 189.43 242.95 188.00 263.00 C 186.57 283.05 214.12 281.86 212.00 262.00 C 209.88 242.14 213.38 223.44 212.00 205.00 C 210.62 186.56 211.57 171.55 222.25 158.25 C 232.93 144.95 248.00 146.14 262.00 142.00 Z"/>
</g>
<g fill="#FFFFFF" fill-opacity="1.00" stroke="None">
<path d="
M 176.00 189.00 
C 177.19 177.27 172.35 167.01 162.23 160.77 C 152.11 154.54 140.24 153.21 128.00 153.00 C 115.76 152.79 103.32 154.88 92.08 159.08 C 80.83 163.27 73.03 169.77 75.00 183.00
C 102.74 155.91 151.97 155.31 176.00 189.00 Z"/>
</g>
<g fill="#FFFFFF" fill-opacity="1.00" stroke="None">
<path d="
M 325.00 183.00 
C 328.19 164.75 310.79 158.39 296.02 154.98 C 281.26 151.56 259.16 152.68 245.07 157.07 C 230.99 161.47 220.05 176.88 225.00 190.00
C 245.16 154.15 298.41 156.10 325.00 183.00 Z"/>
</g>
<g fill="#FFFFFF" fill-opacity="1.00" stroke="None">
<path d="
M 65.00 177.00 
C 36.99 175.38 17.03 200.53 18.00 227.00 C 18.97 253.47 40.87 276.79 69.00 273.00
C 68.65 258.25 51.12 264.29 42.25 255.75 C 33.37 247.22 28.71 239.44 28.00 227.00 C 27.29 214.56 31.89 204.12 40.30 195.30 C 48.71 186.49 67.14 191.63 65.00 177.00 Z"/>
</g>
<g fill="#FFFFFF" fill-opacity="1.00" stroke="None">
<path d="
M 110.00 177.00 
C 100.89 180.00 95.01 185.02 87.70 191.70 C 80.38 198.37 92.23 203.82 97.75 210.25 C 103.27 216.68 114.80 221.22 122.93 222.07 C 131.05 222.92 144.55 220.54 150.25 215.25 C 155.96 209.97 168.81 204.17 167.25 196.75 C 165.69 189.33 151.87 185.25 148.00 180.00
C 158.45 196.76 145.08 219.80 125.07 217.93 C 105.06 216.05 97.78 191.31 110.00 177.00 Z"/>
</g>
<g fill="#FFFFFF" fill-opacity="1.00" stroke="None">
<path d="
M 316.00 195.00 
C 307.78 187.88 299.69 179.35 289.00 177.00
C 303.18 190.54 294.81 215.99 275.00 218.00 C 255.19 220.01 241.16 196.63 252.00 180.00
C 247.36 185.23 227.81 193.23 234.25 201.75 C 240.69 210.28 249.91 216.13 259.78 220.22 C 269.65 224.32 285.28 222.60 294.30 216.30 C 303.33 210.00 310.26 204.38 316.00 195.00 Z"/>
</g>
<g fill="#FFFFFF" fill-opacity="1.00" stroke="None">
<path d="
M 331.00 273.00 
C 358.93 277.33 381.52 252.54 382.67 226.67 C 383.82 200.81 362.42 174.75 335.00 177.00
C 332.83 191.95 352.06 186.04 360.25 195.75 C 368.44 205.47 372.41 213.40 372.00 226.00 C 371.59 238.60 366.85 247.46 357.75 255.75 C 348.64 264.03 331.38 258.55 331.00 273.00 Z"/>
</g>
<g fill="#FFFFFF" fill-opacity="1.00" stroke="None">
<path d="
M 64.00 204.00 
C 33.12 202.29 35.81 251.05 64.00 253.00
C 65.99 249.44 64.58 244.98 65.00 241.00
C 48.72 241.49 46.78 213.55 64.00 214.00
C 64.00 210.67 64.00 207.33 64.00 204.00 Z"/>
</g>
<g fill="#FFFFFF" fill-opacity="1.00" stroke="None">
<path d="
M 335.00 252.00 
C 364.18 252.87 366.12 200.90 335.00 204.00
C 335.00 207.00 335.00 210.00 335.00 213.00
C 352.28 213.21 351.92 240.23 335.00 241.00
C 335.00 244.67 335.00 248.33 335.00 252.00 Z"/>
</g>
<g fill="#FFFFFF" fill-opacity="1.00" stroke="None">
<path d="
M 134.00 302.00 
C 142.89 304.20 146.11 316.84 139.25 323.25 C 132.38 329.65 120.57 328.02 117.78 318.22 C 114.99 308.42 125.27 303.00 124.00 293.00 C 122.73 283.00 124.98 268.58 124.00 259.00 C 123.02 249.42 127.91 233.03 118.00 232.00 C 108.09 230.97 100.94 227.46 93.25 222.75 C 85.55 218.05 82.74 211.49 76.00 207.00
C 75.90 220.10 75.81 233.23 77.00 246.00
C 91.60 243.77 113.24 244.10 110.00 262.00 C 106.76 279.90 112.96 293.82 110.00 310.00 C 107.04 326.18 114.06 334.66 123.75 344.25 C 133.44 353.84 138.68 359.57 148.75 367.25 C 158.83 374.92 166.90 380.77 178.98 385.02 C 191.05 389.27 208.70 388.92 220.78 384.78 C 232.85 380.63 241.10 374.90 251.25 367.25 C 261.41 359.61 266.50 353.90 276.25 344.25 C 286.00 334.59 291.44 324.84 289.00 309.00 C 286.56 293.16 291.36 278.30 289.00 261.00 C 286.64 243.70 308.52 244.23 322.00 246.00
C 323.47 233.59 323.80 219.06 322.00 207.00
C 311.49 221.64 294.26 232.27 276.00 232.00
C 276.00 256.00 276.00 280.00 276.00 304.00
C 288.39 309.63 280.08 329.18 267.68 326.32 C 255.28 323.46 254.47 306.76 266.00 303.00
C 266.62 292.65 265.17 283.46 266.00 273.00 C 266.83 262.54 264.41 253.89 266.00 243.00 C 267.59 232.11 260.08 230.91 251.00 228.00
C 251.24 236.13 262.08 247.36 254.25 255.25 C 246.42 263.13 236.82 259.95 231.99 251.01 C 227.16 242.07 243.00 233.50 239.99 225.01 C 236.99 216.52 228.63 214.12 223.00 207.00
C 221.40 228.28 225.89 257.45 221.30 277.30 C 216.72 297.16 181.49 295.87 177.93 276.07 C 174.37 256.27 178.55 227.11 175.00 207.00
C 172.11 215.34 160.46 216.93 159.00 226.00 C 157.54 235.07 171.97 240.97 166.97 250.97 C 161.97 260.97 152.29 262.04 144.92 254.08 C 137.55 246.12 149.71 236.04 149.00 228.00
C 139.92 230.87 132.38 232.18 134.00 243.00 C 135.62 253.82 133.13 262.65 134.00 273.00 C 134.87 283.35 133.35 291.82 134.00 302.00
M 247.00 328.00 
C 230.05 326.95 225.34 349.13 207.78 350.78 C 190.21 352.43 173.03 346.84 166.00 330.00
C 161.50 329.36 155.67 331.30 152.00 329.00
C 158.36 326.75 164.48 318.55 170.70 316.70 C 176.91 314.84 182.53 302.34 189.22 305.78 C 195.92 309.22 202.09 312.98 208.75 306.75 C 215.40 300.51 221.54 313.35 227.70 315.30 C 233.85 317.26 240.44 326.02 247.00 328.00 Z"/>
</g>
<g fill="#FFFFFF" fill-opacity="1.00" stroke="None">
<path d="
M 65.00 223.00 
C 53.49 224.24 68.22 236.28 65.00 223.00 Z"/>
</g>
<g fill="#FFFFFF" fill-opacity="1.00" stroke="None">
<path d="
M 335.00 223.00 
C 334.45 225.93 334.77 232.73 338.74 229.74 C 342.72 226.75 337.97 222.89 335.00 223.00 Z"/>
</g>
<g fill="#FFFFFF" fill-opacity="1.00" stroke="None">
<path d="
M 101.00 256.00 
C 93.67 256.00 86.33 256.00 79.00 256.00
C 82.56 276.39 89.17 296.17 100.00 314.00
C 102.33 295.66 100.33 275.17 101.00 256.00 Z"/>
</g>
<g fill="#FFFFFF" fill-opacity="1.00" stroke="None">
<path d="
M 321.00 256.00 
C 313.67 256.00 306.33 256.00 299.00 256.00
C 299.66 275.18 297.67 295.57 300.00 314.00
C 310.31 296.00 318.13 276.56 321.00 256.00 Z"/>
</g>
<g fill="#FFFFFF" fill-opacity="1.00" stroke="None">
<path d="
M 23.00 265.00 
C 28.51 297.23 59.74 333.67 97.00 330.00
C 94.31 316.25 75.70 320.21 67.08 312.92 C 58.46 305.62 48.74 300.88 43.92 290.08 C 39.10 279.28 30.37 274.11 23.00 265.00 Z"/>
</g>
<g fill="#FFFFFF" fill-opacity="1.00" stroke="None">
<path d="
M 303.00 330.00 
C 340.05 333.32 371.77 297.59 377.00 265.00
C 369.30 273.72 360.53 279.92 355.75 290.75 C 350.97 301.59 340.78 306.02 332.23 313.23 C 323.68 320.44 305.68 316.31 303.00 330.00 Z"/>
</g>
<g fill="#FFFFFF" fill-opacity="1.00" stroke="None">
<path d="
M 82.00 308.00 
C 79.16 294.57 67.20 287.50 55.00 284.00
C 59.76 295.10 70.17 304.94 82.00 308.00 Z"/>
</g>
<g fill="#FFFFFF" fill-opacity="1.00" stroke="None">
<path d="
M 345.00 285.00 
C 331.63 286.31 321.91 295.86 317.00 308.00
C 329.38 306.83 339.81 295.64 345.00 285.00 Z"/>
</g>
<g fill="#000000" fill-opacity="1.00" stroke="None">
<path d="
M 247.00 328.00 
C 240.44 326.02 233.85 317.26 227.70 315.30 C 221.54 313.35 215.40 300.51 208.75 306.75 C 202.09 312.98 195.92 309.22 189.22 305.78 C 182.53 302.34 176.91 314.84 170.70 316.70 C 164.48 318.55 158.36 326.75 152.00 329.00
C 155.67 331.30 161.50 329.36 166.00 330.00
C 173.03 346.84 190.21 352.43 207.78 350.78 C 225.34 349.13 230.05 326.95 247.00 328.00
M 219.00 328.00 
C 212.29 342.51 187.83 342.07 181.00 328.00
C 187.18 321.78 194.10 328.52 200.08 328.92 C 206.06 329.32 212.82 320.95 219.00 328.00 Z"/>
</g>
<g fill="#FFFFFF" fill-opacity="1.00" stroke="None">
<path d="
M 219.00 328.00 
C 212.82 320.95 206.06 329.32 200.08 328.92 C 194.10 328.52 187.18 321.78 181.00 328.00
C 187.83 342.07 212.29 342.51 219.00 328.00 Z"/>
</g>
<g fill="#FFFFFF" fill-opacity="1.00" stroke="None">
<path d="
M 134.00 371.00 
C 128.75 367.46 125.34 358.33 119.22 355.78 C 113.11 353.23 104.52 349.00 98.70 346.30 C 92.87 343.61 87.17 332.48 80.75 338.75 C 74.34 345.02 86.22 351.02 91.77 354.23 C 97.32 357.44 105.26 361.70 111.78 364.22 C 118.29 366.75 126.96 369.56 134.00 371.00 Z"/>
</g>
<g fill="#FFFFFF" fill-opacity="1.00" stroke="None">
<path d="
M 267.00 371.00 
C 275.73 368.84 292.87 363.26 299.92 358.92 C 306.98 354.59 326.87 346.72 319.75 339.25 C 312.62 331.79 300.92 351.56 291.68 351.68 C 282.44 351.80 271.75 363.66 267.00 371.00 Z"/>
</g>
</svg>